<svg width="100" height="100" viewBox="0 0 100 100" fill="none" xmlns="http://www.w3.org/2000/svg">
<path d="M13.9205 25.1542H50.6506C51.7576 30.193 56.2574 33.9759 61.6239 33.9759C66.9903 33.9759 71.4901 30.1932 72.5971 25.1542H86.2936C87.6258 25.1542 88.706 24.074 88.706 22.7418C88.706 21.4095 87.6258 20.3293 86.2936 20.3293H72.5959C71.4868 15.2931 66.9808 11.5078 61.6239 11.5078C56.264 11.5078 51.7602 15.2925 50.6515 20.3293H13.9205C12.5882 20.3293 11.5081 21.4095 11.5081 22.7418C11.5081 24.074 12.5882 25.1542 13.9205 25.1542V25.1542ZM55.2149 22.7481C55.2149 22.7395 55.2151 22.7308 55.2151 22.7222C55.2256 19.199 58.1005 16.3328 61.6239 16.3328C65.1422 16.3328 68.0173 19.195 68.0325 22.7166L68.0329 22.752C68.0274 26.2813 65.1545 29.1512 61.6239 29.1512C58.0948 29.1512 55.2228 26.2841 55.2148 22.757L55.2149 22.7481ZM86.2936 75.134H72.5959C71.4866 70.0979 66.9808 66.3125 61.6239 66.3125C56.264 66.3125 51.7602 70.0973 50.6515 75.134H13.9205C12.5882 75.134 11.5081 76.214 11.5081 77.5464C11.5081 78.8788 12.5882 79.9589 13.9205 79.9589H50.6506C51.7576 84.9977 56.2574 88.7805 61.6239 88.7805C66.9903 88.7805 71.4901 84.9977 72.5971 79.9589H86.2936C87.6258 79.9589 88.706 78.8788 88.706 77.5464C88.706 76.214 87.6258 75.134 86.2936 75.134V75.134ZM61.6239 83.9557C58.0948 83.9557 55.2228 81.0886 55.2148 77.5615L55.2149 77.5528C55.2149 77.544 55.2151 77.5354 55.2151 77.5268C55.2256 74.0036 58.1005 71.1373 61.6239 71.1373C65.1422 71.1373 68.0173 73.9995 68.0325 77.521L68.0329 77.5564C68.0278 81.0861 65.1548 83.9557 61.6239 83.9557V83.9557ZM86.2936 47.7317H49.5635C48.4565 42.6929 43.9567 38.9102 38.5902 38.9102C33.2238 38.9102 28.724 42.6929 27.6169 47.7317H13.9205C12.5882 47.7317 11.5081 48.8119 11.5081 50.1442C11.5081 51.4766 12.5882 52.5566 13.9205 52.5566H27.6182C28.7274 57.5927 33.2332 61.3781 38.5902 61.3781C43.95 61.3781 48.4539 57.5933 49.5626 52.5566H86.2936C87.6258 52.5566 88.706 51.4766 88.706 50.1442C88.706 48.8119 87.6258 47.7317 86.2936 47.7317ZM44.9992 50.1378C44.9992 50.1466 44.999 50.1552 44.999 50.1638C44.9884 53.687 42.1136 56.5531 38.5902 56.5531C35.0718 56.5531 32.1968 53.6909 32.1816 50.1695L32.1811 50.1342C32.1864 46.6045 35.0595 43.7351 38.5902 43.7351C42.1193 43.7351 44.9913 46.602 44.9993 50.1292L44.9992 50.1378Z" fill="#A9A9A9"/>
</svg>
