<svg width="25" height="20" viewBox="0 0 25 20" fill="none" xmlns="http://www.w3.org/2000/svg">
<path d="M23.3333 3.33333H1.66667C0.74625 3.33333 0 2.58708 0 1.66667C0 0.74625 0.74625 0 1.66667 0H23.3333C24.2537 0 25 0.74625 25 1.66667C25 2.58708 24.2537 3.33333 23.3333 3.33333Z" fill="#D1D1D1"/>
<path d="M23.3333 19.9998H1.66667C0.74625 19.9998 0 19.2536 0 18.3332C0 17.4128 0.74625 16.6665 1.66667 16.6665H23.3333C24.2537 16.6665 25 17.4128 25 18.3332C25 19.2536 24.2537 19.9998 23.3333 19.9998Z" fill="#D1D1D1"/>
<path d="M23.3333 11.6668H1.66667C0.74625 11.6668 0 10.9206 0 10.0002C0 9.07975 0.74625 8.3335 1.66667 8.3335H23.3333C24.2537 8.3335 25 9.07975 25 10.0002C25 10.9206 24.2537 11.6668 23.3333 11.6668Z" fill="#D1D1D1"/>
</svg>
