<svg width="100" height="100" viewBox="0 0 100 100" fill="none" xmlns="http://www.w3.org/2000/svg">
<path d="M49.6364 81.8335H20.659C18.8817 81.8335 17.4394 80.391 17.4394 78.6138V20.6592C17.4394 18.8819 18.8819 17.4396 20.659 17.4396H49.6364C51.4169 17.4396 52.8561 16.0004 52.8561 14.2199C52.8561 12.4395 51.4169 11 49.6364 11H20.659C15.3337 11 11 15.3338 11 20.6592V78.6137C11 83.9391 15.3337 88.2727 20.659 88.2727H49.6364C51.4169 88.2727 52.8561 86.8336 52.8561 85.0531C52.8561 83.2726 51.4169 81.8335 49.6364 81.8335Z" fill="#A9A9A9"/>
<path d="M87.5711 47.3428L67.9953 28.0246C66.7331 26.7753 64.6919 26.7915 63.4426 28.0568C62.1934 29.3222 62.2062 31.3602 63.4749 32.6095L77.4644 46.4155H39.9774C38.197 46.4155 36.7578 47.8546 36.7578 49.6351C36.7578 51.4156 38.197 52.8549 39.9774 52.8549H77.4644L63.4749 66.6609C62.2064 67.9101 62.1967 69.9482 63.4426 71.2135C64.0736 71.851 64.9043 72.1729 65.7351 72.1729C66.5529 72.1729 67.3706 71.8639 67.9953 71.2456L87.5711 51.9274C88.1828 51.3221 88.5305 50.4978 88.5305 49.6349C88.5305 48.7724 88.186 47.9514 87.5711 47.3428Z" fill="#A9A9A9"/>
</svg>
