<svg width="100" height="100" viewBox="0 0 100 100" fill="none" xmlns="http://www.w3.org/2000/svg">
<path d="M85.9447 58.1042L78.8421 52.5502C78.9322 51.6938 79.0094 50.6925 79.0094 49.6332C79.0094 48.5739 78.9353 47.5726 78.8421 46.7161L85.9512 41.159C87.2713 40.1158 87.6318 38.2644 86.7915 36.7223L79.4055 23.9432C78.6166 22.5008 76.8876 21.7602 75.133 22.4074L66.7521 25.7719C65.1455 24.6128 63.4615 23.6341 61.7197 22.8517L60.4447 13.9622C60.2353 12.275 58.7672 11 57.0318 11H42.2213C40.4858 11 39.021 12.275 38.8148 13.9364L37.5366 22.8582C35.8495 23.6181 34.1914 24.584 32.5139 25.7784L24.1105 22.4042C22.5359 21.7957 20.6524 22.4782 19.87 23.9142L12.4745 36.7093C11.602 38.184 11.9625 40.0997 13.3116 41.1687L20.4142 46.7226C20.3015 47.8076 20.2469 48.751 20.2469 49.6365C20.2469 50.522 20.3016 51.4653 20.4142 52.5536L13.3051 58.1107C11.985 59.1571 11.6276 61.0084 12.468 62.5474L19.854 75.3264C20.6429 76.7656 22.3557 77.5125 24.1265 76.8622L32.5074 73.4976C34.1108 74.6536 35.7947 75.6323 37.5366 76.4179L38.8116 85.3042C39.0208 86.9977 40.4858 88.2727 42.2245 88.2727H57.035C58.7705 88.2727 60.2387 86.9977 60.4447 85.3364L61.7228 76.4179C63.41 75.6548 65.0649 74.692 66.7456 73.4943L75.149 76.8685C75.5547 77.0262 75.9765 77.1068 76.4111 77.1068C77.6603 77.1068 78.8098 76.4242 79.3893 75.3617L86.8075 62.5151C87.6318 61.0083 87.2711 59.1571 85.9447 58.1042ZM49.6265 62.5151C42.5239 62.5151 36.7478 56.739 36.7478 49.6364C36.7478 42.5338 42.5239 36.7576 49.6265 36.7576C56.7291 36.7576 62.5052 42.5338 62.5052 49.6364C62.5052 56.739 56.7291 62.5151 49.6265 62.5151Z" fill="#A9A9A9"/>
</svg>
