<svg width="101" height="100" viewBox="0 0 101 100" fill="none" xmlns="http://www.w3.org/2000/svg">
<path d="M21.301 74.5574L14.6443 81.2142C13.5001 82.3584 13.5001 84.2133 14.6443 85.3575C15.7884 86.5016 17.6433 86.5016 18.7875 85.3575L25.4445 78.7005C26.5886 77.5563 26.5886 75.7014 25.4445 74.5572C24.3003 73.4131 22.4452 73.4133 21.301 74.5574Z" fill="#A9A9A9"/>
<path d="M50.0013 84.7256C48.3833 84.7256 47.0715 86.0373 47.0715 87.6553V97.0696C47.0715 98.6876 48.3833 99.9993 50.0013 99.9993C51.6193 99.9993 52.931 98.6876 52.931 97.0696V87.6553C52.931 86.0373 51.6193 84.7256 50.0013 84.7256Z" fill="#A9A9A9"/>
<path d="M78.7008 74.5554C77.5567 73.4112 75.7018 73.4112 74.5576 74.5554C73.4134 75.6996 73.4134 77.5545 74.5576 78.6986L81.2146 85.3556C82.3587 86.4998 84.2136 86.4998 85.3578 85.3556C86.502 84.2115 86.502 82.3565 85.3578 81.2124L78.7008 74.5554Z" fill="#A9A9A9"/>
<path d="M50.0013 15.2738C51.6193 15.2738 52.931 13.962 52.931 12.344V2.92975C52.931 1.31175 51.6193 0 50.0013 0C48.3833 0 47.0715 1.31175 47.0715 2.92975V12.344C47.0715 13.962 48.3833 15.2738 50.0013 15.2738Z" fill="#A9A9A9"/>
<path d="M21.3023 25.4455C22.4464 26.5896 24.3013 26.5896 25.4455 25.4455C26.5897 24.3013 26.5897 22.4464 25.4455 21.3022L18.7887 14.6452C17.6446 13.5011 15.7896 13.5011 14.6455 14.6452C13.5013 15.7894 13.5013 17.6443 14.6455 18.7885L21.3023 25.4455Z" fill="#A9A9A9"/>
<path d="M15.2738 50.0001C15.2738 48.3821 13.962 47.0703 12.344 47.0703H2.92975C1.31175 47.0703 0 48.3821 0 50.0001C0 51.6181 1.31175 52.9298 2.92975 52.9298H12.344C13.962 52.9298 15.2738 51.6181 15.2738 50.0001Z" fill="#A9A9A9"/>
<path d="M49.9997 25.1021C36.2719 25.1021 25.1033 36.2706 25.1033 49.9985C25.1033 63.7263 36.2719 74.8949 49.9997 74.8949C63.7275 74.8949 74.8961 63.7263 74.8961 49.9985C74.8961 36.2706 63.7275 25.1021 49.9997 25.1021Z" fill="#A9A9A9"/>
<path d="M78.7008 25.4455L85.3578 18.7885C86.502 17.6443 86.502 15.7894 85.3578 14.6452C84.2136 13.5011 82.3587 13.5011 81.2146 14.6452L74.5576 21.3022C73.4134 22.4464 73.4134 24.3013 74.5576 25.4455C75.7018 26.5896 77.5567 26.5896 78.7008 25.4455Z" fill="#A9A9A9"/>
<path d="M97.0718 47.0703H87.6575C86.0395 47.0703 84.7278 48.3821 84.7278 50.0001C84.7278 51.6181 86.0395 52.9298 87.6575 52.9298H97.0718C98.6898 52.9298 100.002 51.6181 100.002 50.0001C100.002 48.3821 98.6898 47.0703 97.0718 47.0703Z" fill="#A9A9A9"/>
</svg>
