<svg width="23" height="24" viewBox="0 0 23 24" fill="none" xmlns="http://www.w3.org/2000/svg">
<path d="M7.31191 10.1487L11.6745 5.78514L16.0395 10.151L18.5779 7.61189L11.6745 0.706543L4.77344 7.60958L7.31191 10.1487Z" fill="#F3BA2F"/>
<path d="M5.5176 11.9409L2.97949 9.4021L0.441263 11.941L2.97937 14.4797L5.5176 11.9409Z" fill="#F3BA2F"/>
<path d="M7.31173 13.7346L11.6743 18.0981L16.0391 13.7324L18.579 16.2701L18.5777 16.2715L11.6743 23.1767L4.77308 16.2739L4.76953 16.2703L7.31173 13.7346Z" fill="#F3BA2F"/>
<path d="M20.368 14.4813L22.9062 11.9424L20.3681 9.40363L17.8299 11.9425L20.368 14.4813Z" fill="#F3BA2F"/>
<path d="M14.2487 11.9403H14.2497L11.6738 9.36377L9.7702 11.2679H9.77002L9.55143 11.4867L9.10023 11.938L9.09668 11.9416L9.10023 11.9453L11.6738 14.5196L14.2497 11.943L14.251 11.9416L14.2487 11.9403Z" fill="#F3BA2F"/>
</svg>
