<svg width="12" height="19" viewBox="0 0 12 19" fill="none" xmlns="http://www.w3.org/2000/svg">
<path d="M4.20006 18.7155L11.1321 6.77954C11.2891 6.50929 11.0665 6.17675 10.7568 6.21887L6.1458 6.8456L7.24752 1.06155C7.28466 0.866559 7.03326 0.754832 6.91342 0.913033L0.0976749 9.90983C-0.100858 10.1719 0.109364 10.5445 0.436297 10.5101L5.51994 9.97495L3.85337 18.5856C3.81318 18.7933 4.09381 18.8985 4.20006 18.7155Z" fill="#FFDC64"/>
<path d="M2.22909 9.27215C2.10178 9.28233 2.01722 9.14316 2.0849 9.03487L7.18086 0.88134C7.10504 0.821352 6.9857 0.817491 6.91342 0.912896L0.0976749 9.9097C-0.100858 10.1718 0.109364 10.5443 0.436297 10.5099L5.51994 9.97481L3.85337 18.5854C3.8309 18.7016 3.90925 18.7833 4.00083 18.8028L6.85663 9.76613C6.99051 9.34257 6.65276 8.91823 6.20996 8.95368L2.22909 9.27215Z" fill="#CFA549"/>
</svg>
