<svg width="8" height="8" viewBox="0 0 8 8" fill="none" xmlns="http://www.w3.org/2000/svg">
<path d="M4.12499 0.244141C2.06048 0.244141 0.380859 1.92378 0.380859 3.98829C0.380859 6.05281 2.06048 7.7324 4.12499 7.7324C6.1895 7.7324 7.86912 6.05281 7.86912 3.98829C7.86912 1.92378 6.1895 0.244141 4.12499 0.244141ZM4.12499 7.05165C2.43582 7.05165 1.06161 5.67744 1.06161 3.98829C1.06161 2.29915 2.43582 0.924892 4.12499 0.924892C5.81416 0.924892 7.18837 2.29915 7.18837 3.98829C7.18837 5.67744 5.81414 7.05165 4.12499 7.05165Z" fill="#4764FC"/>
<path d="M4.12464 1.83252C3.87444 1.83252 3.6709 2.0362 3.6709 2.28656C3.6709 2.53669 3.87444 2.74019 4.12464 2.74019C4.37484 2.74019 4.57839 2.53669 4.57839 2.28656C4.57839 2.0362 4.37484 1.83252 4.12464 1.83252Z" fill="#4764FC"/>
<path d="M4.12553 3.4209C3.93755 3.4209 3.78516 3.5733 3.78516 3.76127V5.80353C3.78516 5.99151 3.93755 6.1439 4.12553 6.1439C4.31351 6.1439 4.46591 5.99151 4.46591 5.80353V3.76127C4.46591 3.5733 4.31351 3.4209 4.12553 3.4209Z" fill="#4764FC"/>
</svg>
